<?xml version="1.0" standalone="no"?><!DOCTYPE svg PUBLIC "-//W3C//DTD SVG 1.1//EN" "http://www.w3.org/Graphics/SVG/1.1/DTD/svg11.dtd"><svg t="1544801661651" class="icon" style="" viewBox="0 0 1024 1024" version="1.1" xmlns="http://www.w3.org/2000/svg" p-id="6747" xmlns:xlink="http://www.w3.org/1999/xlink" width="200" height="200"><defs><style type="text/css"></style></defs><path d="M794.295859 476.572423l-0.009143-0.010971a4.523755 4.523755 0 0 0-0.447987-0.661924c-0.053027-0.065827-0.113368-0.126168-0.168224-0.190166a4.309819 4.309819 0 0 0-0.391303-0.383989c-0.067655-0.060341-0.13531-0.120682-0.206622-0.177366a4.827289 4.827289 0 0 0-0.524785-0.347419c-0.042056-0.025599-0.084112-0.054856-0.126168-0.078626a4.448786 4.448786 0 0 0-0.639981-0.277935L475.018209 364.656108a4.558497 4.558497 0 0 0-1.877888-0.219423c-0.106054-0.007314-0.208451-0.032913-0.316334-0.032913-1.027628 0-1.963829 0.349247-2.726321 0.923402L156.173919 474.444027a4.565811 4.565811 0 0 0-3.055455 4.009942c-0.025599 0.38216 0.007314 0.755178 0.074969 1.119053l-79.498507 151.748767a4.563983 4.563983 0 0 0 1.912631 6.154793l316.366647 166.89073a4.56764 4.56764 0 0 0 6.229764-2.031484l70.054208-143.328438v353.171072l-306.020889-131.781342V686.221234a4.563983 4.563983 0 0 0-9.127965 0v197.178313c0 1.823033 1.084312 3.470528 2.759234 4.192794l313.843292 135.151302a4.432329 4.432329 0 0 0 3.113967 1.236079c0.117025 0 0.232222-0.027428 0.349248-0.036571 0.117025 0.009143 0.232222 0.03657 0.349247 0.036571 0.877689 0 1.753549-0.254164 2.510556-0.751521 0.219422-0.142624 0.416902-0.30902 0.605239-0.486386l313.839635-135.151303a4.560326 4.560326 0 0 0 2.759235-4.190965V686.69482l85.823353-44.80785a4.569468 4.569468 0 0 0 1.894346-6.229764l-86.660815-159.084783zM392.071116 794.096523l-308.178541-162.56994 76.609448-146.233954 306.938805 154.593941-75.369712 154.209953z m76.18706-164.045555L170.591789 479.097607l297.666387-103.468559v254.42192z m9.127965-254.913791l301.191771 104.391961-39.088244 19.630976-262.103527 131.633233V375.137177z m306.721212 505.258114l-306.020889 131.781343V655.132759l83.665701 147.449919a4.562154 4.562154 0 0 0 6.081653 1.793777l216.271706-112.914687v188.933523z m-216.589868-86.152487l-87.65553-154.478745 308.527788-154.946845 82.325398 151.12707-303.197656 158.29852z m440.859514-793.860534a4.563983 4.563983 0 0 0-5.995713 2.389874c-0.266964 0.618039-27.312584 62.566424-88.805667 128.546693-56.737107 60.88053-155.173582 137.570433-301.904893 157.195924a4.563983 4.563983 0 1 0 1.210479 9.051167c65.969297-8.824431 127.943282-29.620174 184.195831-61.809417 44.990703-25.745543 86.435907-58.786876 123.176333-98.213397 62.562767-67.12675 90.241055-130.528807 90.511676-131.161474a4.56764 4.56764 0 0 0-2.388046-5.99937zM405.876432 290.506017c113.704607-45.890334 185.375225-116.341331 212.203252-162.727192a4.563983 4.563983 0 0 0-7.902858-4.571297c-26.100276 45.133327-96.163627 113.810661-207.716067 158.834276-85.241885 34.403579-220.99477 64.612537-383.656136 13.156192a4.563983 4.563983 0 1 0-2.75192 8.703749c63.701934 20.152105 123.329929 27.97085 177.54368 27.970851 86.415794 0 159.046385-19.879655 212.280049-41.366579zM81.672753 168.318913l0.118854 0.120682c2.393531 2.362446 50.393975 49.267608 92.479161 56.117239 6.622895 1.078826 12.768546 1.614582 18.425983 1.614582 11.68972 0 21.285786-2.296619 28.652888-6.877059 9.574124-5.951828 15.527781-15.727089 17.696404-29.053334 0.363875-2.241764 0.608897-4.670037 0.696666-7.218992 11.916456-2.207022 22.949738-5.392302 33.013905-9.543039 35.228241-14.523924 46.442546-35.776797 46.903333-36.674599 1.146481-2.236278 0.265135-4.969914-1.965658-6.125538s-4.980885-0.28342-6.14748 1.943716c-0.102397 0.191994-10.583466 19.620006-43.140241 32.770712-7.868116 3.177965-17.467839 6.149308-29.03322 8.352673-1.155624-10.042225-4.911401-20.600092-12.889228-28.188444-6.608267-6.28279-18.853856-12.832544-39.678856-8.358159-42.664827 9.168193-99.703639 22.765058-102.766408 23.498294a4.56764 4.56764 0 0 0-2.366103 7.621266z m107.048799-22.190903c13.591379-2.920144 24.180331-0.885003 31.470635 6.046911 6.107252 5.807375 9.228534 14.489182 10.15925 23.072249-29.742685 4.233021-70.825843 3.397388-126.308586-9.897772 20.859741-4.902259 56.027641-13.066595 84.678701-19.221388z m11.925599 40.57483c10.440842-0.151767 20.41724-0.883175 29.881652-2.194223a47.642055 47.642055 0 0 1-0.491871 4.267763c-1.751721 10.757175-6.169422 18.202904-13.505439 22.766886-9.003626 5.597096-22.728487 6.942885-40.792424 4.002628-26.480608-4.309819-56.738935-26.873739-73.855699-41.32818 36.30341 8.71472 69.44714 12.909342 98.763781 12.485126z" p-id="6748" fill="#999999"></path></svg>