<?xml version="1.0" standalone="no"?><!DOCTYPE svg PUBLIC "-//W3C//DTD SVG 1.1//EN" "http://www.w3.org/Graphics/SVG/1.1/DTD/svg11.dtd"><svg t="1544802062271" class="icon" style="" viewBox="0 0 1024 1024" version="1.1" xmlns="http://www.w3.org/2000/svg" p-id="41791" xmlns:xlink="http://www.w3.org/1999/xlink" width="200" height="200"><defs><style type="text/css"></style></defs><path d="M502.79 538.987L808.205 844.39c14.68 14.687 37.169 16.011 50.226 2.955 13.05-13.056 11.727-35.537-2.954-50.224L570.745 512.402l287.686-287.673c13.05-13.056 13.05-34.214 0-47.27-13.057-13.056-34.222-13.056-47.277 0L499.835 488.765c-13.057 13.056-13.057 34.219 0 47.275 0.474 0.473 0.959 0.924 1.453 1.361 0.485 0.538 0.983 1.069 1.502 1.586z m-337.216-2.947c0.473 0.473 0.959 0.924 1.453 1.361 0.485 0.537 0.983 1.067 1.501 1.586L473.944 844.39c14.68 14.687 37.17 16.011 50.225 2.955 13.05-13.056 11.727-35.537-2.955-50.224l-284.73-284.719 287.685-287.673c13.05-13.056 13.05-34.214 0-47.27-13.055-13.056-34.221-13.056-47.277 0L165.574 488.765c-13.056 13.056-13.056 34.219 0 47.275z" fill="#1ec8a2" p-id="41792"></path></svg>