<?xml version="1.0" standalone="no"?><!DOCTYPE svg PUBLIC "-//W3C//DTD SVG 1.1//EN" "http://www.w3.org/Graphics/SVG/1.1/DTD/svg11.dtd"><svg t="1544802067132" class="icon" style="" viewBox="0 0 1024 1024" version="1.1" xmlns="http://www.w3.org/2000/svg" p-id="41937" xmlns:xlink="http://www.w3.org/1999/xlink" width="200" height="200"><defs><style type="text/css"></style></defs><path d="M521.21 538.987a41.383 41.383 0 0 0 1.502-1.586c0.494-0.438 0.979-0.889 1.453-1.361 13.057-13.056 13.057-34.22 0-47.274L212.847 177.459c-13.056-13.056-34.221-13.056-47.277 0-13.05 13.056-13.05 34.214 0 47.27l287.686 287.673-284.733 284.719c-14.681 14.687-16.004 37.168-2.954 50.224 13.057 13.056 35.546 11.731 50.226-2.955L521.21 538.987z m337.216-2.947c13.057-13.056 13.057-34.22 0-47.274L547.108 177.459c-13.057-13.056-34.223-13.056-47.277 0-13.05 13.056-13.05 34.214 0 47.27l287.685 287.673-284.73 284.719c-14.682 14.687-16.005 37.168-2.955 50.224 13.055 13.056 35.545 11.731 50.225-2.955l305.415-305.402a42.094 42.094 0 0 0 1.502-1.586c0.494-0.438 0.98-0.889 1.453-1.362z" fill="#1ec8a2" p-id="41938"></path></svg>