<?xml version="1.0" standalone="no"?><!DOCTYPE svg PUBLIC "-//W3C//DTD SVG 1.1//EN" "http://www.w3.org/Graphics/SVG/1.1/DTD/svg11.dtd"><svg t="1530946396778" class="icon" style="" viewBox="0 0 1024 1024" version="1.1" xmlns="http://www.w3.org/2000/svg" p-id="71243" xmlns:xlink="http://www.w3.org/1999/xlink" width="150" height="150"><defs><style type="text/css"></style></defs><path d="M0 0h1024v1024H0z" fill="#EFEFEF" p-id="71244"></path><path d="M507.904 608.768c146.944-0.512 266.752-116.736 271.872-263.68-71.68 45.056-260.608-20.48-316.928-119.296-51.712 92.16-140.8 174.08-226.816 120.32 4.608 146.944 124.928 263.168 271.872 263.68" fill="#E5E5E5" p-id="71245"></path><path d="M690.176 143.872c-20.992-17.92-44.544-32.768-69.632-44.544-31.744-14.848-66.56-22.528-101.888-22.528h-20.48c-41.472-0.512-88.576 12.8-131.584 38.912l-3.584 2.048-8.192 5.12H353.28c-68.608 47.616-123.904 129.024-117.76 235.008h0.512c84.48 52.736 171.52-24.576 223.744-114.688C518.656 339.968 711.68 402.432 782.848 358.4c5.12-81.92-29.184-161.792-92.672-214.528z" fill="#ADADAD" p-id="71246"></path><path d="M623.104 626.176l3.584 1.536-3.584-1.536z m-191.488-7.68z m-32.768 8.192z m238.592 4.096h2.56c-3.072 8.704-7.168 16.896-11.776 24.576 18.944 30.208 14.336 159.744-14.336 139.264l-51.2-35.328-50.688-35.328 3.584-2.048h-6.656l3.584 2.048-50.688 35.328-52.224 35.84c-29.184 20.48-34.304-110.08-14.336-139.264-4.608-7.68-8.704-15.872-11.776-24.576h2.048c-98.816 33.28-174.592 112.64-202.752 212.992 198.144 137.728 461.312 137.728 659.456 0-28.672-100.352-104.96-180.224-204.288-212.992l-0.512-0.512z m-48.128-12.8z m-126.976-5.12z m94.208-0.512z" fill="#DDDDDD" p-id="71247"></path><path d="M391.68 657.92c4.096-6.144 8.704-7.68 14.336-3.584l51.2 36.352 47.616 33.28h6.656l47.616-33.28 51.2-36.352c6.144-4.096 10.752-2.048 14.336 4.096 4.608-8.192 8.704-16.384 11.776-25.088h-2.56l-11.776-3.584-3.584-1.536-30.208-7.68h-4.096l-28.16-4.608h-3.072l-15.872-1.536H479.744l-15.872 1.536h-4.608l-28.672 4.608h-2.56l-30.72 6.656h-2.048l-14.848 4.608c3.072 8.704 7.168 16.896 11.776 24.576l-0.512 1.536z" fill="#FCFCFC" p-id="71248"></path><path d="M613.888 654.848l-50.688 35.328-47.104 33.28-3.584 2.048 50.688 35.328 50.688 35.328c29.184 20.48 34.304-109.056 14.336-138.752-4.096-6.144-8.704-8.192-14.336-4.096v1.536z m-203.776 0c-5.632-4.096-10.752-2.048-14.336 3.584-19.968 29.184-14.848 159.232 14.336 138.752l50.688-35.328 50.688-35.328-3.584-2.048L460.8 691.2l-50.688-36.352z" fill="#ADADAD" p-id="71249"></path></svg>